<svg xmlns="http://www.w3.org/2000/svg" viewBox="0 0 24 24" fill="#872EC4">
  <path d="M12 2c5.523 0 10 4.477 10 10s-4.477 10-10 10S2 17.523 2 12 6.477 2 12 2zm0 3a3 3 0 0 0-3 3v4a3 3 0 0 0 6 0V8a3 3 0 0 0-3-3zm0 11.5c-.827 0-1.5-.673-1.5-1.5s.673-1.5 1.5-1.5 1.5.673 1.5 1.5-.673 1.5-1.5 1.5z"/>
  <path fill-rule="evenodd" clip-rule="evenodd" d="M12 0C5.373 0 0 5.373 0 12s5.373 12 12 12 12-5.373 12-12S18.627 0 12 0zm0 2c5.523 0 10 4.477 10 10s-4.477 10-10 10S2 17.523 2 12 6.477 2 12 2z" fill-opacity="0.2"/>
</svg> 