<svg xmlns="http://www.w3.org/2000/svg" viewBox="0 0 24 24" fill="#872EC4">
  <path d="M12 0C5.373 0 0 5.373 0 12s5.373 12 12 12 12-5.373 12-12S18.627 0 12 0zm.051 2.416c2.875 0 5.365 1.684 6.482 4.132a7.07 7.07 0 0 1-2.396 9.718.75.75 0 0 0-.318.763l.391 1.976c.089.447-.276.857-.73.82l-1.913-.159a.749.749 0 0 0-.553.192 7.054 7.054 0 0 1-8.897-.064.75.75 0 0 0-.549-.187l-1.913.159c-.454.037-.819-.373-.73-.82l.391-1.976a.75.75 0 0 0-.318-.763 7.07 7.07 0 0 1-2.396-9.718c1.117-2.448 3.607-4.132 6.482-4.132 2.091 0 3.952.897 5.284 2.332l.196.212.196-.212a7.19 7.19 0 0 1 5.284-2.332zm-.001 3.006a4.053 4.053 0 0 0-4.053 4.053c0 2.237 1.816 4.053 4.053 4.053s4.053-1.816 4.053-4.053-1.816-4.053-4.053-4.053zm0 2.013c1.127 0 2.04.913 2.04 2.04s-.913 2.04-2.04 2.04-2.04-.913-2.04-2.04.913-2.04 2.04-2.04z"/>
</svg> 