<svg xmlns="http://www.w3.org/2000/svg" viewBox="0 0 24 24" fill="#1DB954">
  <path d="M12 0C5.4 0 0 5.4 0 12s5.4 12 12 12 12-5.4 12-12S18.66 0 12 0zm5.521 17.34c-.24.371-.721.53-1.07.29-3.17-1.931-7.17-2.371-11.87-1.291-.459.12-.917-.181-1.037-.631-.12-.459.18-.917.63-1.037 5.16-1.171 9.59-.6 13.13 1.571.361.181.48.721.241 1.101zm1.44-3.193c-.301.459-.921.6-1.381.301-3.631-2.221-9.161-2.881-13.441-1.561-.539.181-1.08-.121-1.26-.631-.181-.539.12-1.08.63-1.26 4.891-1.5 11.021-.77 15.171 1.801.421.251.601.91.301 1.361zm.12-3.313c-4.351-2.581-11.461-2.811-15.611-1.561-.66.241-1.32-.12-1.561-.721-.241-.661.12-1.321.721-1.561 4.771-1.441 12.681-1.171 17.701 1.801.6.361.78 1.141.42 1.741-.361.601-1.141.78-1.741.421z"/>
</svg> 